<?xml version="1.0" encoding="UTF-8" standalone="no"?>
<!-- Created with Inkscape (http://www.inkscape.org/) -->
<svg width="311.61816mm" height="202.16mm" viewBox="0 0 311.61816 202.16" version="1.1" id="svg1" xml:space="preserve" sodipodi:docname="algebrauix.svg" inkscape:version="1.4.2 (ebf0e940d0, 2025-05-08)" xmlns:inkscape="http://www.inkscape.org/namespaces/inkscape" xmlns:sodipodi="http://sodipodi.sourceforge.net/DTD/sodipodi-0.dtd" xmlns="http://www.w3.org/2000/svg" xmlns:svg="http://www.w3.org/2000/svg">
    <sodipodi:namedview id="namedview1" pagecolor="#ffffff" bordercolor="#000000" borderopacity="0.25" inkscape:showpageshadow="2" inkscape:pageopacity="0.0" inkscape:pagecheckerboard="0" inkscape:deskcolor="#d1d1d1" inkscape:document-units="mm" inkscape:zoom="0.24094753" inkscape:cx="1840.6497" inkscape:cy="612.16648" inkscape:window-width="1745" inkscape:window-height="1013" inkscape:window-x="0" inkscape:window-y="0" inkscape:window-maximized="1" inkscape:current-layer="layer1-5" />
    <defs id="defs1" />
    <g inkscape:label="Layer 1" inkscape:groupmode="layer" id="layer1" transform="translate(364.67662,-245.01356)">
        <g inkscape:label="Layer 1" id="layer1-5" transform="matrix(5,0,0,5,-2192.5323,686.83403)">
            <path style="fill:#000000;stroke-width:0.181818" d="m 374.37279,-47.940326 c -0.0264,-0.0099 -0.10724,-0.03094 -0.17951,-0.04686 -0.18537,-0.04085 -0.46925,-0.304721 -0.57262,-0.532268 -0.2941,-0.647382 0.17031,-1.419539 0.85378,-1.419539 h 0.25915 v -5.89299 -5.89299 h -0.55611 -0.55611 l -1.13365,1.154545 c -0.6235,0.635001 -1.16002,1.154544 -1.19226,1.154544 -0.0322,0 -0.56191,-0.519543 -1.17706,-1.154544 l -1.11845,-1.154545 h -1.10192 -1.10193 v -0.120442 -0.120444 l 6.33796,0.0122 c 6.30183,0.01213 6.33797,0.01275 6.33797,0.108417 0,0.08312 -0.0368,0.09815 -0.27066,0.110462 l -0.27067,0.01425 -0.022,3.81018 c -0.0121,2.0956 -0.0139,3.820085 -0.004,3.832193 0.01,0.01211 0.93791,-0.897869 2.06221,-2.02217 l 2.04418,-2.044185 -0.78337,-0.771172 c -0.43085,-0.424144 -0.91326,-0.893771 -1.072,-1.043619 l -0.28864,-0.272448 2.1235,-9.09e-4 2.12351,-9.09e-4 0.99626,-1.006492 0.99627,-1.006492 2.05162,0.0095 c 1.1284,0.0052 2.1339,-0.0019 2.23445,-0.01576 l 0.18281,-0.02527 -0.23854,-0.295442 c -0.1746,-0.216242 -0.22426,-0.309738 -0.18523,-0.348769 0.0293,-0.02933 0.0769,-0.05333 0.10568,-0.05333 0.0601,0 0.33857,0.322949 0.50968,0.591054 l 0.11626,0.182155 2.03375,-0.0085 c 1.11857,-0.0047 2.04599,0.0037 2.06093,0.01867 0.0149,0.01495 0.0129,0.0721 -0.005,0.127008 -0.0314,0.09888 -0.0503,0.09984 -1.98189,0.09984 -1.8395,0 -1.94807,0.0048 -1.91279,0.08419 0.0206,0.0463 0.10308,0.268191 0.18335,0.493088 0.13746,0.385135 0.14603,0.450839 0.14743,1.13049 10e-4,0.607733 -0.0156,0.780868 -0.10667,1.097266 -0.29915,1.038947 -1.00392,1.883129 -1.95525,2.34204 -0.65248,0.314749 -1.08442,0.404463 -1.80241,0.374361 -0.45639,-0.01913 -0.6353,-0.04997 -0.97845,-0.168623 -0.79435,-0.274679 -1.45611,-0.766561 -1.92003,-1.427155 -0.12854,-0.183035 -0.23818,-0.32398 -0.24365,-0.313218 -0.005,0.01076 -0.0217,0.565657 -0.0361,1.233094 l -0.0261,1.213522 -0.60132,-0.590431 c -0.33073,-0.324735 -0.81416,-0.793235 -1.07429,-1.041111 l -0.47297,-0.450685 -4.08029,4.080082 -4.08029,4.080082 0.14638,0.123169 c 0.50609,0.425849 0.39204,1.354197 -0.20469,1.666181 -0.12567,0.0657 -0.51683,0.130065 -0.60069,0.09884 z m 0.54669,-0.350173 c 0.45353,-0.335862 0.45938,-0.99953 0.0114,-1.298771 -0.30647,-0.204734 -0.80784,-0.111685 -1.02249,0.189765 -0.10929,0.153478 -0.1675,0.486844 -0.11886,0.68064 0.0417,0.1663 0.26151,0.415394 0.43651,0.494746 0.1902,0.08624 0.53141,0.05358 0.69339,-0.06638 z m 3.75797,-9.47649 0.002,-3.959119 -1.86207,0.0126 -1.86206,0.0126 0.008,5.74867 c 0.004,3.161769 0.009,5.770214 0.009,5.796543 5.4e-4,0.02633 0.83377,-0.784634 1.85153,-1.802144 l 1.85048,-1.850017 z m 10.43105,1.091399 c 1.22191,-0.153216 2.23729,-0.887209 2.75468,-1.99129 0.27329,-0.583175 0.34636,-0.974813 0.31927,-1.711127 -0.0222,-0.603613 -0.11494,-0.994074 -0.33895,-1.427272 l -0.0759,-0.146833 -2.29929,-0.02497 -2.29929,-0.02497 -0.13752,0.126509 c -0.0756,0.06958 -0.48334,0.489629 -0.90599,0.933441 l -0.76847,0.806929 0.016,0.564092 c 0.0158,0.557178 0.0187,0.5694 0.23024,0.997049 0.17621,0.356161 0.2914,0.510087 0.64943,0.867835 0.60993,0.609447 1.27194,0.939828 2.07083,1.033465 0.15875,0.01861 0.31085,0.03679 0.338,0.04041 0.0272,0.0036 0.22829,-0.01586 0.44696,-0.04327 z m 1.54913,4.977082 c -0.83291,-0.801824 -1.52026,-1.475483 -1.52744,-1.497021 -0.0171,-0.05137 3.00608,-3.073087 3.04033,-3.038836 0.0145,0.01445 0.0207,1.368954 0.0139,3.010001 l -0.0124,2.983718 z m -8.50691,0.594535 c -0.046,-0.04598 0.0524,-0.169825 0.45858,-0.577251 l 0.5171,-0.518717 -0.50053,-0.502246 c -0.43929,-0.440784 -0.49262,-0.51178 -0.43584,-0.580189 0.0576,-0.06936 0.11817,-0.02465 0.5503,0.406011 0.26708,0.266179 0.50825,0.483961 0.53592,0.483961 0.0277,0 0.26381,-0.217315 0.52476,-0.482923 0.42823,-0.435864 0.48172,-0.475664 0.54891,-0.408469 0.0672,0.06719 0.0254,0.123627 -0.42853,0.579151 l -0.50299,0.504704 0.51711,0.518717 c 0.40616,0.407426 0.50455,0.531275 0.45857,0.577251 -0.0322,0.0322 -0.0817,0.05854 -0.10995,0.05854 -0.0283,0 -0.26667,-0.216066 -0.52976,-0.480146 l -0.47834,-0.480144 -0.48793,0.480144 c -0.26836,0.26408 -0.50838,0.480146 -0.53338,0.480146 -0.025,0 -0.0718,-0.02634 -0.104,-0.05854 z m -0.14951,-10.384671 c -0.57103,-0.112033 -1.12278,-0.367909 -1.47373,-0.683436 -0.4264,-0.383378 -0.4266,-0.380356 0.0563,-0.863293 l 0.4186,-0.418612 0.19693,0.208097 c 0.25695,0.27153 0.55749,0.441021 0.94321,0.531932 0.8508,0.200523 1.58707,-0.0343 1.89949,-0.605832 0.13093,-0.239522 0.14194,-0.300417 0.15957,-0.88265 l 0.0189,-0.625378 -0.1422,0.194149 c -0.57512,0.785246 -1.7039,1.006201 -2.72653,0.533717 -0.62954,-0.290866 -1.05992,-0.784777 -1.31214,-1.505846 -0.12042,-0.344261 -0.13164,-0.436401 -0.13085,-1.074102 7.3e-4,-0.646912 0.0107,-0.723725 0.13667,-1.058334 0.19278,-0.512177 0.33076,-0.728005 0.66071,-1.033483 0.4902,-0.453838 1.00479,-0.650681 1.69837,-0.649657 0.68156,0.0011 1.17545,0.192979 1.57014,0.61031 0.13266,0.140265 0.2508,0.255027 0.26253,0.255027 0.0117,0 0.0213,-0.175498 0.0213,-0.389995 0,-0.33586 0.0106,-0.38594 0.0761,-0.360794 0.0419,0.01605 0.34492,0.0292 0.67348,0.0292 h 0.59739 l -9e-4,2.754071 c -7.3e-4,2.232404 -0.0142,2.817056 -0.0713,3.086599 -0.20815,0.982578 -0.87345,1.665255 -1.87777,1.926848 -0.31096,0.081 -1.2865,0.09365 -1.65444,0.02146 z m 1.4028,-3.745641 c 0.56512,-0.269385 0.84393,-0.810805 0.79385,-1.541557 -0.029,-0.42358 -0.13958,-0.714107 -0.37277,-0.979696 -0.48924,-0.557211 -1.54862,-0.590912 -2.07357,-0.06596 -0.0787,0.0787 -0.20165,0.254102 -0.27322,0.389785 -0.11757,0.222867 -0.13012,0.295492 -0.12996,0.751811 1.5e-4,0.424083 0.018,0.544462 0.11103,0.750397 0.14183,0.313818 0.45514,0.620929 0.75781,0.742823 0.31955,0.128689 0.8627,0.106902 1.18683,-0.04761 z m -5.44031,1.56073 c -0.41028,-0.115437 -0.66688,-0.336513 -0.8109,-0.698623 -0.0787,-0.197964 -0.0867,-0.492126 -0.0996,-3.690769 l -0.0141,-3.475662 h 0.69933 0.69933 v 3.095661 c 0,2.033937 0.0173,3.145256 0.0504,3.240261 0.0735,0.210852 0.22505,0.272698 0.59539,0.242969 l 0.31407,-0.02521 0.0277,0.150714 c 0.0153,0.08289 0.0212,0.344924 0.0131,0.582293 l -0.0146,0.431577 -0.23652,0.08769 c -0.32913,0.122023 -0.90178,0.149682 -1.22371,0.0591 z m 10.86495,-0.0026 c -0.51012,-0.109953 -0.98692,-0.374308 -1.37546,-0.762592 -0.5535,-0.553133 -0.78727,-1.168138 -0.7886,-2.074691 -9.1e-4,-0.579126 0.0786,-0.921561 0.33546,-1.446474 0.32891,-0.67205 0.98219,-1.185576 1.76338,-1.386136 0.37408,-0.09604 1.10023,-0.09697 1.50343,-0.0019 0.70821,0.166938 1.32786,0.637009 1.64859,1.250628 0.25688,0.491466 0.33213,0.792662 0.36316,1.453536 l 0.0277,0.589297 h -2.12458 -2.12458 l 0.0318,0.132293 c 0.0605,0.251467 0.25187,0.572009 0.44623,0.747605 0.31651,0.285947 0.48726,0.339907 1.08719,0.343572 0.62063,0.0038 0.8725,-0.08302 1.21578,-0.419057 0.15207,-0.148871 0.22275,-0.188944 0.27169,-0.154044 0.0364,0.02594 0.25195,0.166233 0.47903,0.311752 0.22708,0.145522 0.41329,0.280413 0.41381,0.299762 5.4e-4,0.01935 -0.13995,0.184533 -0.31216,0.367076 -0.36729,0.389354 -0.82048,0.650136 -1.31013,0.753894 -0.40667,0.08618 -1.14097,0.08405 -1.55176,-0.0045 z m 2.06829,-3.376558 c -5.5e-4,-0.163402 -0.0964,-0.426805 -0.23463,-0.644821 -0.20981,-0.330838 -0.6164,-0.521749 -1.11119,-0.521749 -0.44298,0 -0.74141,0.09299 -0.99501,0.310065 -0.20228,0.173142 -0.41863,0.532844 -0.47177,0.784347 l -0.033,0.156336 h 1.42295 c 1.32323,0 1.42293,-0.0059 1.42269,-0.08418 z m 4.89562,3.358192 c -0.37302,-0.119244 -0.73019,-0.35668 -0.9298,-0.618099 l -0.16518,-0.216335 v 0.391767 0.391763 h -0.69754 -0.69754 v -3.896587 -3.89659 h 0.7247 0.7247 l -0.0281,1.467235 c -0.0155,0.806979 -0.0115,1.46707 0.009,1.466872 0.0204,-1.82e-4 0.13328,-0.09834 0.25089,-0.218082 0.24903,-0.253551 0.68712,-0.482243 1.05552,-0.550998 1.43773,-0.268326 2.68648,0.553807 3.06851,2.020199 0.12598,0.483578 0.11336,1.32308 -0.0268,1.779924 -0.31013,1.011121 -0.93864,1.675253 -1.80326,1.905473 -0.35977,0.0958 -1.14629,0.08174 -1.48501,-0.02654 z m 0.97196,-1.233477 c 0.67296,-0.199848 1.11387,-1.068274 0.96347,-1.897688 -0.10436,-0.575499 -0.3761,-0.974737 -0.80772,-1.18669 -0.24044,-0.118073 -0.32798,-0.134482 -0.70735,-0.132591 -0.50629,0.0025 -0.76721,0.102882 -1.07957,0.415238 -0.28999,0.289995 -0.40566,0.63476 -0.4087,1.218211 -0.002,0.428971 0.0121,0.51231 0.13213,0.769695 0.2033,0.435816 0.51355,0.712576 0.94724,0.844976 0.20856,0.06367 0.69424,0.04792 0.9605,-0.03115 z m 8.52844,1.252563 c -0.5676,-0.15284 -0.98135,-0.480611 -1.19304,-0.945123 -0.11694,-0.256595 -0.13856,-0.366617 -0.13998,-0.712365 -0.003,-0.715973 0.22901,-1.139337 0.78718,-1.436841 0.41027,-0.218673 0.78896,-0.2835 1.8854,-0.322754 l 0.95746,-0.03428 -1.8e-4,-0.173422 c -9.1e-4,-0.615846 -0.38873,-0.920571 -1.16867,-0.918353 -0.36342,0.0011 -0.82452,0.12284 -1.18043,0.311829 -0.17108,0.09084 -0.32717,0.155216 -0.34685,0.143051 -0.0197,-0.01216 -0.15965,-0.221406 -0.31104,-0.46498 l -0.27524,-0.442861 0.13794,-0.112617 c 0.19952,-0.16289 0.76194,-0.424865 1.12411,-0.523609 0.40217,-0.109648 1.54282,-0.123053 1.90019,-0.02233 0.29999,0.08455 0.72886,0.30146 0.89778,0.454071 0.2492,0.22514 0.47186,0.568367 0.57553,0.887174 0.0991,0.304829 0.10618,0.431793 0.12681,2.2831 l 0.0219,1.96032 h -0.6787 -0.67869 v -0.32218 -0.322184 l -0.20445,0.208727 c -0.48064,0.49069 -1.46558,0.713325 -2.2369,0.505627 z m 1.7752,-1.159632 c 0.36821,-0.198475 0.51414,-0.455374 0.55427,-0.975778 l 0.031,-0.401732 -0.81344,0.0243 c -1.06717,0.03188 -1.34914,0.144389 -1.46798,0.58574 -0.0987,0.366625 0.11265,0.724806 0.51683,0.875815 0.30052,0.112275 0.8665,0.06028 1.17934,-0.108343 z m 7.54399,1.14339 c -0.91503,-0.247071 -1.57938,-0.875758 -1.88683,-1.785564 -0.1029,-0.304513 -0.10608,-0.382182 -0.1216,-2.970549 l -0.0159,-2.657856 h 0.70014 0.70016 v 2.44834 c 0,2.316626 0.005,2.465185 0.0967,2.761447 0.19429,0.62904 0.6918,0.997001 1.36292,1.008023 0.66147,0.01087 1.07178,-0.224968 1.34038,-0.770407 l 0.15852,-0.321894 0.014,-2.562756 0.014,-2.562753 h 0.69921 0.69922 l -0.0201,2.585698 c -0.0176,2.267159 -0.0303,2.621258 -0.10318,2.874336 -0.38828,1.34809 -1.35567,2.049898 -2.81422,2.041613 -0.3272,-0.0019 -0.62176,-0.03322 -0.82344,-0.08768 z m -45.53724,-0.0778 c 0.0105,-0.02646 0.29582,-0.751658 0.63409,-1.611553 0.33828,-0.859897 0.87352,-2.212879 1.18944,-3.006629 0.31591,-0.793747 0.68436,-1.724601 0.81877,-2.06856 0.13441,-0.343956 0.25006,-0.633335 0.257,-0.643062 0.007,-0.0097 0.35463,-0.01713 0.77265,-0.01644 l 0.76002,0.0013 0.15508,0.377225 c 0.0853,0.207475 0.41313,1.037479 0.72854,1.84446 0.3154,0.806978 0.90046,2.285639 1.30012,3.285912 0.39968,1.000274 0.72668,1.8283 0.72668,1.840059 0,0.01176 -0.35178,0.02109 -0.78172,0.02075 l -0.78173,-5.46e-4 -0.26458,-0.744841 -0.26458,-0.744841 -1.60104,-1.78e-4 c -1.23809,-1.4e-4 -1.60562,0.01345 -1.62126,0.05995 -0.0845,0.251214 -0.5042,1.397368 -0.51601,1.409175 -0.0429,0.04286 -1.52845,0.04082 -1.51147,-0.0021 z m 4.70982,-2.7473 c 0.0161,-0.01611 -0.0153,-0.140589 -0.0698,-0.276609 -0.0545,-0.136018 -0.23795,-0.63697 -0.40762,-1.113217 -0.4597,-1.290287 -0.55061,-1.518197 -0.59475,-1.490917 -0.0221,0.01365 -0.0771,0.13821 -0.12217,0.276805 -0.0451,0.138594 -0.27406,0.757498 -0.50879,1.375343 -0.23473,0.617846 -0.42678,1.141893 -0.42678,1.16455 0,0.06396 2.06784,0.12614 2.12993,0.06405 z m 26.44504,0.0053 v -2.766104 h 0.69753 0.69754 l 0.002,0.493085 c 0.002,0.47955 0.004,0.489127 0.0784,0.348769 0.13652,-0.257756 0.39195,-0.537558 0.6274,-0.68726 0.25165,-0.159998 0.46801,-0.225616 0.89184,-0.270475 l 0.27661,-0.02928 v 0.72201 0.722012 h -0.28684 c -0.57706,0 -1.08769,0.307214 -1.3762,0.827981 l -0.14094,0.254405 -0.0145,1.575472 -0.0145,1.575471 h -0.71915 -0.71915 z m 19.43482,-0.915336 v -3.681432 l 0.68551,0.01335 0.68551,0.01335 0.0123,3.668085 0.0123,3.668084 h -0.69784 -0.69784 z m 2.29237,3.45293 c 0.17057,-0.29604 1.94453,-3.221894 2.04909,-3.379637 0.0787,-0.118675 0.0723,-0.133216 -0.42824,-0.986174 -0.41459,-0.706427 -1.51072,-2.588791 -1.58963,-2.729831 -0.0111,-0.01984 0.33287,-0.03607 0.76438,-0.03606 l 0.78456,1.3e-5 0.2629,0.46902 c 0.68708,1.225803 1.11314,1.960308 1.13712,1.960308 0.0245,0 0.71843,-1.202834 1.1861,-2.055859 l 0.20403,-0.372147 0.78375,-7.27e-4 0.78375,-7.28e-4 -0.13257,0.228502 c -0.0729,0.125678 -0.55008,0.929339 -1.06036,1.785919 -0.51028,0.856581 -0.92779,1.577293 -0.92779,1.601588 0,0.02429 0.27797,0.514083 0.6177,1.088415 0.71776,1.213413 1.49897,2.581703 1.49897,2.625473 0,0.01667 -0.34411,0.03032 -0.76468,0.03032 h -0.76467 l -0.71459,-1.275857 c -0.66049,-1.179274 -0.72005,-1.269209 -0.78674,-1.188018 -0.0397,0.04831 -0.38362,0.622446 -0.7643,1.275856 l -0.69214,1.188019 h -0.78915 -0.78915 z m -54.2623,-9.590997 c -2.04951,-2.05312 -2.24916,-2.278059 -2.07383,-2.336424 0.0283,-0.0094 1.04122,0.970453 2.25097,2.177487 1.78738,1.783389 2.18903,2.207255 2.14352,2.262096 -0.0308,0.03712 -0.0804,0.06508 -0.11025,0.06215 -0.0298,-0.0029 -1.02452,-0.977323 -2.21041,-2.165304 z m 32.29456,0.751497 -0.59989,-0.601337 -0.58951,0.588091 c -0.5595,0.558156 -0.59376,0.583847 -0.67297,0.50463 -0.0792,-0.07922 -0.053,-0.114051 0.5159,-0.684277 l 0.59937,-0.600812 -0.56451,-0.565984 c -0.31048,-0.31129 -0.56451,-0.590066 -0.56451,-0.619502 0,-0.02944 0.0292,-0.07777 0.0649,-0.107404 0.0512,-0.04254 0.1804,0.06756 0.61335,0.522834 0.30163,0.317192 0.56976,0.576914 0.59584,0.577158 0.0261,1.82e-4 0.30914,-0.260666 0.62905,-0.579798 0.51062,-0.509398 0.58935,-0.570952 0.64479,-0.504145 0.0663,0.07987 0.0318,0.121747 -0.82699,1.004497 l -0.27544,0.283117 0.59841,0.629166 c 0.4611,0.48479 0.58643,0.643618 0.54616,0.692138 -0.0287,0.03463 -0.0662,0.06297 -0.0832,0.06297 -0.017,0 -0.30087,-0.270602 -0.63081,-0.601341 z m -23.5682,-0.102458 -0.58072,-0.56515 -1.64169,0.0038 -1.64168,0.0038 -0.536,0.534482 c -0.2948,0.293964 -0.56007,0.534485 -0.58949,0.534485 -0.0294,0 -0.0782,-0.02974 -0.10834,-0.06609 -0.044,-0.05296 0.23801,-0.354372 1.41937,-1.51722 0.81083,-0.798119 1.4877,-1.437194 1.50417,-1.420163 0.0165,0.01704 0.68562,0.671218 1.487,1.453754 0.88359,0.86281 1.45138,1.452285 1.44263,1.497729 -0.0353,0.183155 -0.19455,0.08628 -0.75525,-0.459383 z m -1.51624,-1.506258 -0.66938,-0.670661 -0.12373,0.09005 c -0.068,0.04953 -0.38316,0.351324 -0.70025,0.670663 l -0.57652,0.580613 h 1.36963 1.36962 z m 4.35077,0.932332 v -1.037454 l -2.93029,-2.911582 c -1.61166,-1.601367 -2.9484,-2.904271 -2.97054,-2.895344 -0.0595,0.02398 -0.0224,0.551086 0.0619,0.878705 0.0403,0.15686 0.12732,0.391763 0.19332,0.522009 0.12378,0.244277 0.1223,0.371387 -0.004,0.371387 -0.0863,0 -0.21727,-0.243501 -0.36254,-0.673811 -0.074,-0.219079 -0.1129,-0.477574 -0.13041,-0.865583 l -0.0249,-0.553219 -0.38166,-0.387826 c -0.27603,-0.280487 -0.37303,-0.410302 -0.3505,-0.469034 0.0171,-0.04466 0.0419,-0.08121 0.0549,-0.08121 0.0131,0 0.17575,0.140709 0.3615,0.312688 0.18575,0.17198 0.35265,0.312689 0.37089,0.312689 0.0182,0 0.0605,-0.106891 0.094,-0.237536 0.19579,-0.763913 0.83552,-1.549215 1.54481,-1.896327 0.95284,-0.466299 2.19677,-0.408308 3.0705,0.143143 0.82349,0.519743 1.36434,1.397546 1.43634,2.331206 l 0.0301,0.389752 -0.1157,-0.01635 c -0.10649,-0.01506 -0.11787,-0.04316 -0.14287,-0.353091 -0.0944,-1.169854 -0.97479,-2.200417 -2.1376,-2.502181 -0.34875,-0.0905 -1.06495,-0.10084 -1.39508,-0.02013 -1.04134,0.254579 -1.89076,1.115714 -2.10418,2.133216 l -0.0579,0.27578 2.94512,2.938069 2.94513,2.938071 v -1.727227 -1.727225 l -1.20102,-1.200303 c -1.11227,-1.111597 -1.19548,-1.20643 -1.12595,-1.283252 0.0697,-0.07706 0.15415,-0.0049 1.18899,1.016416 l 1.11393,1.099365 0.024,-0.290999 0.0241,-0.290997 1.20265,1.148515 c 0.66146,0.631686 1.24211,1.197321 1.29033,1.25697 0.0482,0.05965 0.10276,0.108451 0.1212,0.108451 0.0184,0 1.34185,-1.308991 2.94092,-2.90887 2.76993,-2.77134 2.91158,-2.905081 2.99598,-2.8287 0.0845,0.07647 -0.0465,0.215266 -2.83596,3.005025 l -2.92455,2.924852 0.53497,0.534978 c 0.40573,0.40573 0.55261,0.52487 0.60796,0.493145 0.0401,-0.02301 2.20901,-2.163306 4.81971,-4.756222 2.6107,-2.592915 4.7778,-4.721391 4.81579,-4.729946 0.0597,-0.01345 0.0691,0.816831 0.0691,6.145007 v 6.160561 l 1.96032,0.01256 c 1.92406,0.01233 1.96032,0.01435 1.96032,0.10878 0,0.09582 -0.0361,0.09626 -8.79137,0.108369 l -8.79137,0.01214 z m 7.07158,-1.949664 v -2.746321 l -0.15634,0.129508 c -0.086,0.07123 -0.75729,0.72587 -1.49179,1.45476 l -1.33544,1.32525 0.49873,0.509838 c 0.2743,0.280412 0.84277,0.861646 1.26328,1.291635 l 0.76456,0.781796 0.2285,-7.5e-5 0.2285,-7.1e-5 z m 2.45341,-1.230597 v -3.976919 l -1.10104,1.078529 -1.10105,1.07853 -0.005,2.898388 -0.005,2.898389 h 1.10644 1.10644 z m 3.94469,-1.940125 c 0,-3.254373 -0.0161,-5.917043 -0.0358,-5.917043 -0.0197,0 -0.85315,0.817096 -1.85208,1.815766 l -1.81624,1.815767 v 4.101276 4.101276 h 1.85208 1.85208 z m -16.39246,2.681576 c -0.69434,-0.694713 -1.26244,-1.287375 -1.26244,-1.317024 0,-0.02965 0.0282,-0.07727 0.0625,-0.10582 0.0482,-0.04001 0.35906,0.244753 1.35549,1.241697 1.11932,1.119895 1.28455,1.303722 1.23042,1.368935 -0.0344,0.04143 -0.0762,0.07533 -0.0931,0.07533 -0.0168,0 -0.59862,-0.568404 -1.29297,-1.263119 z m 6.54254,-4.035978 c -0.042,-0.04198 0.0268,-0.143747 0.28191,-0.416877 l 0.33746,-0.36134 -0.34637,-0.348697 c -0.23678,-0.238367 -0.33711,-0.372832 -0.3171,-0.424978 0.0513,-0.133601 0.14195,-0.08457 0.49836,0.269467 l 0.34807,0.345746 0.34181,-0.352826 c 0.31776,-0.328015 0.34739,-0.347237 0.42125,-0.273372 0.0739,0.07386 0.0567,0.102355 -0.24376,0.405161 -0.17777,0.179138 -0.32321,0.34627 -0.32321,0.371401 0,0.02513 0.14544,0.19226 0.32321,0.371398 0.30597,0.308336 0.31879,0.330132 0.24027,0.408648 -0.0785,0.07852 -0.10159,0.06441 -0.43266,-0.264447 l -0.34972,-0.347389 -0.33424,0.336822 c -0.18383,0.185252 -0.34673,0.336821 -0.36199,0.336821 -0.0153,0 -0.0527,-0.02499 -0.0833,-0.05554 z m 5.78496,-3.861869 c -0.14527,-0.07461 -0.29768,-0.204503 -0.38484,-0.32797 -0.13188,-0.186804 -0.14432,-0.238293 -0.14432,-0.597161 0,-0.358753 0.0125,-0.410463 0.14432,-0.597681 0.08,-0.113599 0.2408,-0.255599 0.36079,-0.318584 0.31185,-0.163696 0.78897,-0.134267 1.07462,0.06628 0.59427,0.417218 0.59157,1.300396 -0.005,1.719421 -0.29498,0.207103 -0.70771,0.229092 -1.04532,0.05569 z m 0.789,-0.1932 c 0.55753,-0.288312 0.62904,-1.020259 0.13467,-1.378383 -0.51555,-0.373459 -1.23636,0.008 -1.23636,0.654335 0,0.575133 0.61194,0.977308 1.10169,0.724048 z m 3.25191,-1.305377 c -0.30444,-0.108563 -0.64876,-0.401771 -0.81069,-0.690338 -0.12492,-0.222628 -0.14969,-0.324015 -0.16685,-0.682927 -0.0274,-0.571956 0.0676,-0.838899 0.42859,-1.204711 0.22995,-0.233027 0.32035,-0.288438 0.61819,-0.378905 0.44767,-0.135974 0.77272,-0.106091 1.20376,0.110667 1.167,0.586853 1.05796,2.363934 -0.17332,2.824613 -0.30848,0.115417 -0.80903,0.12525 -1.09968,0.0216 z m 1.1189,-0.287815 c 0.28753,-0.143284 0.51536,-0.384123 0.64886,-0.685934 0.11971,-0.27063 0.10162,-0.804657 -0.0369,-1.090755 -0.24258,-0.500819 -0.75429,-0.784304 -1.32268,-0.732763 -0.60206,0.05459 -1.08453,0.526821 -1.17851,1.153482 -0.0677,0.451546 0.16986,0.996855 0.54867,1.259369 0.24359,0.168808 0.39532,0.210954 0.77751,0.215966 0.24768,0.0032 0.3684,-0.02234 0.5631,-0.119365 z" id="path1" />
        </g>
    </g>
</svg>
