<?xml version="1.0" encoding="UTF-8" standalone="no"?>
<!-- Created with Inkscape (http://www.inkscape.org/) -->
<svg width="100mm" height="100mm" viewBox="0 0 99.999995 99.999997" version="1.1" id="svg1" xml:space="preserve" inkscape:version="1.4.2 (ebf0e940d0, 2025-05-08)" sodipodi:docname="fx.svg" xmlns:inkscape="http://www.inkscape.org/namespaces/inkscape" xmlns:sodipodi="http://sodipodi.sourceforge.net/DTD/sodipodi-0.dtd" xmlns="http://www.w3.org/2000/svg" xmlns:svg="http://www.w3.org/2000/svg">
    <sodipodi:namedview id="namedview1" pagecolor="#ffffff" bordercolor="#000000" borderopacity="0.25" inkscape:showpageshadow="2" inkscape:pageopacity="0.0" inkscape:pagecheckerboard="0" inkscape:deskcolor="#d1d1d1" inkscape:document-units="mm" inkscape:zoom="1.363005" inkscape:cx="170.57897" inkscape:cy="224.1371" inkscape:window-width="1745" inkscape:window-height="1013" inkscape:window-x="0" inkscape:window-y="0" inkscape:window-maximized="1" inkscape:current-layer="layer1" />
    <defs id="defs1" />
    <g inkscape:label="Layer 1" inkscape:groupmode="layer" id="layer1" transform="translate(214.67744,18.730066)">
        <rect style="fill:#ffffff;fill-opacity:1;stroke-width:0.272515" id="rect1" width="100" height="100" x="-214.67744" y="-18.730066" />
        <g style="fill:#000000" id="g1" transform="matrix(0.39362518,0,0,0.39362449,-192.72599,3.220934)">
            <g id="g3">
                <g id="g2">
                    <path d="m 34.367,142.514 c 11.645,0 17.827,-10.4 19.645,-16.544 0.029,-0.097 0.056,-0.196 0.081,-0.297 4.236,-17.545 10.984,-45.353 15.983,-65.58 h 17.886 c 3.363,0 6.09,-2.726 6.09,-6.09 0,-3.364 -2.727,-6.09 -6.09,-6.09 H 73.103 c 1.6,-6.373 2.771,-10.912 3.232,-12.461 l 0.512,-1.734 c 1.888,-6.443 6.309,-21.535 13.146,-21.535 6.34,0 7.285,9.764 7.328,10.236 0.27,3.343 3.186,5.868 6.537,5.579 3.354,-0.256 5.864,-3.187 5.605,-6.539 C 108.894,14.036 104.087,0 89.991,0 74.03,0 68.038,20.458 65.159,30.292 l -0.49,1.659 c -0.585,1.946 -2.12,7.942 -4.122,15.962 H 39.239 c -3.364,0 -6.09,2.726 -6.09,6.09 0,3.364 2.726,6.09 6.09,6.09 H 57.53 c -6.253,25.362 -14.334,58.815 -15.223,62.498 -0.332,0.965 -2.829,7.742 -7.937,7.742 -7.8,0 -11.177,-10.948 -11.204,-11.03 -0.936,-3.229 -4.305,-5.098 -7.544,-4.156 -3.23,0.937 -5.092,4.314 -4.156,7.545 2.131,7.361 9.35,19.822 22.901,19.822 z" id="path1" />
                    <path d="m 124.685,126.809 c 3.589,0 6.605,-2.549 6.605,-6.607 0,-1.885 -0.754,-3.586 -2.359,-5.474 l -12.646,-14.534 12.271,-14.346 c 1.132,-1.416 1.98,-2.926 1.98,-4.908 0,-3.59 -2.927,-6.231 -6.703,-6.231 -2.547,0 -4.527,1.604 -6.229,3.684 L 108.073,90.847 98.73,78.391 c -1.89,-2.357 -3.869,-3.682 -6.7,-3.682 -3.59,0 -6.607,2.551 -6.607,6.609 0,1.885 0.756,3.586 2.357,5.471 l 11.799,13.592 -12.932,15.289 c -1.227,1.416 -1.98,2.926 -1.98,4.908 0,3.589 2.926,6.229 6.699,6.229 2.549,0 4.53,-1.604 6.229,-3.682 l 10.19,-13.4 10.193,13.4 c 1.894,2.363 3.876,3.684 6.707,3.684 z" id="path2" />
                </g>
            </g>
        </g>
    </g>
</svg>
